# xmcd
#
# Track frame offsets:
#	182
#	13447
#	25985
#	39557
#	50262
#	65502
#	76282
#	91900
#	105160
#	118575
#	133690
#	149072
#	166275
#	177640
#	188480
#
# Disc length: 2666 seconds
#
# Revision: 1
# Processed by: cddbd v1.5.1PL2 Copyright (c) Steve Scherf et al.
# Submitted via: audiograbber 1.83.01
#
DISCID=cb0a680f
DTITLE=Kenny Rogers - Ruby Don't Take Your Love To Town
DYEAR=1975
DGENRE=Country
TTITLE0=Ruby Don't Take Your Love To Town
TTITLE1=Reuben James
TTITLE2=Shine On Ruby Mountain
TTITLE3=Ticket To Nowhere
TTITLE4=Conditions (Just Dropped In)
TTITLE5=She Even Woke Me Up To Say Goodbye
TTITLE6=My Washington Woman
TTITLE7=Run Thru Your Mind
TTITLE8=Sleep Comes Easy
TTITLE9=After All (I Live My Life)
TTITLE10=For The Good Times
TTITLE11=Something's Burning
TTITLE12=Hurry Up Love
TTITLE13=Trying Just As Hard
TTITLE14=Me And Bobby McGee
EXTD=
EXTT0=
EXTT1=
EXTT2=
EXTT3=
EXTT4=
EXTT5=
EXTT6=
EXTT7=
EXTT8=
EXTT9=
EXTT10=
EXTT11=
EXTT12=
EXTT13=
EXTT14=
PLAYORDER=
